<svg width="520" height="520" viewBox="0 0 520 520" fill="none" xmlns="http://www.w3.org/2000/svg">
<circle cx="318" cy="260" r="200" fill="#D9D9D9"/>
<path fill-rule="evenodd" clip-rule="evenodd" d="M467 208C467 318.457 377.457 408 267 408C224.229 408 184.594 394.574 152.079 371.707C130.562 339.809 118 301.372 118 260C118 149.543 207.543 60 318 60C360.771 60 400.406 73.4258 432.921 96.2931C454.438 128.191 467 166.628 467 208Z" fill="white"/>
<circle cx="463" cy="252" r="27.5" fill="#D9D9D9" stroke="white" stroke-width="5"/>
<circle cx="443" cy="303" r="17.5" fill="#D9D9D9" stroke="white" stroke-width="5"/>
<circle cx="382" cy="370" r="27.5" fill="#D9D9D9" stroke="white" stroke-width="5"/>
<path fill-rule="evenodd" clip-rule="evenodd" d="M214.064 191.004C214.064 191.402 214.059 191.799 214.05 192.196C218.312 190.076 223.115 188.883 228.198 188.883C245.762 188.883 260 203.122 260 220.686C260 222.864 259.781 224.991 259.364 227.046H63.2583C61.1671 222.534 60 217.506 60 212.205C60 192.69 75.8203 176.869 95.3357 176.869C100.28 176.869 104.987 177.885 109.26 179.719C114.432 155.867 135.66 138 161.06 138C190.333 138 214.064 161.73 214.064 191.004Z" fill="black"/>
<path fill-rule="evenodd" clip-rule="evenodd" d="M314.424 436H5.45104C3.22668 430.59 2 424.664 2 418.451C2 392.947 22.6757 372.271 48.1806 372.271C48.1806 334.014 79.1942 303 117.451 303C147.89 303 173.743 322.632 183.039 349.925C185.732 349.436 188.506 349.181 191.34 349.181C214.353 349.181 233.434 366.013 236.943 388.037C245.408 378.373 257.839 372.271 271.694 372.271C297.199 372.271 317.875 392.947 317.875 418.451C317.875 424.664 316.648 430.59 314.424 436Z" fill="black"/>
<path d="M172.408 254.451C173.565 252.464 176.435 252.464 177.592 254.451L179.184 257.183C179.608 257.911 180.318 258.427 181.141 258.605L184.232 259.275C186.479 259.761 187.366 262.491 185.834 264.206L183.727 266.564C183.166 267.192 182.895 268.027 182.979 268.865L183.298 272.011C183.53 274.298 181.207 275.985 179.103 275.058L176.21 273.783C175.439 273.443 174.561 273.443 173.79 273.783L170.897 275.058C168.793 275.985 166.47 274.298 166.702 272.011L167.021 268.865C167.105 268.027 166.834 267.192 166.273 266.564L164.166 264.206C162.634 262.491 163.521 259.761 165.768 259.275L168.859 258.605C169.682 258.427 170.392 257.911 170.816 257.183L172.408 254.451Z" fill="black"/>
<path d="M262.044 113.934C263.586 111.285 267.414 111.285 268.956 113.934L273.503 121.74C274.068 122.711 275.015 123.399 276.113 123.637L284.942 125.549C287.938 126.197 289.121 129.837 287.078 132.123L281.059 138.859C280.311 139.697 279.949 140.81 280.062 141.928L280.972 150.915C281.281 153.965 278.185 156.215 275.38 154.979L267.113 151.336C266.085 150.883 264.915 150.883 263.887 151.336L255.62 154.979C252.815 156.215 249.719 153.965 250.028 150.915L250.938 141.928C251.051 140.81 250.689 139.697 249.941 138.859L243.922 132.123C241.879 129.837 243.062 126.197 246.058 125.549L254.887 123.637C255.985 123.399 256.932 122.711 257.497 121.74L262.044 113.934Z" fill="black"/>
</svg>
